<svg viewBox="13.799999999999999 13.213213213213212 270.6 74.17417417417418" xmlns="http://www.w3.org/2000/svg" id="Layer_1" style="max-height: 500px" width="270.6" height="74.17417417417418"><defs><style>.cls-1{fill:#066c80;}.cls-2{fill:#00a9a7;}.cls-3{fill:#72ddd4;}</style></defs><path d="M14.463,50.963l23.375-.118c.008.14.055.638.072.836.302,3.652,1.514,7.106,3.568,10.121.291.427.934,1.23,1.081,1.415,0,0,.06.103.06.104-.037.037-.342.182-.419.214-6.619,2.774-13.034,5.987-19.367,9.349-5.312-5.965-8.256-13.917-8.368-21.921Z" class="cls-1"/><path d="M42.236,36.792c-.059.069-.069.099-.132.178-.256.322-1.02,1.395-1.308,1.868-1.634,2.672-2.613,5.788-2.886,8.912-.047.536-.071,1.075-.077,1.625l-23.411.081c-.043-7.895,2.553-15.838,7.659-21.852.216-.055,3.48,1.724,3.979,1.97,3.736,1.84,7.519,3.646,11.345,5.294,1.557.67,3.235,1.373,4.832,1.925Z" class="cls-1"/><path d="M23.947,25.429c4.841-5.22,11.356-9.198,18.407-10.596.381-.076,1.717-.392,1.965-.153,2.748,4.611,5.972,8.942,9.624,12.875.098.106,1.197,1.12,1.134,1.172-4.443.714-8.038,3.103-11.232,6.123-.245.232-.607.661-.642.659-6.799-2.658-13.524-5.822-19.966-9.241-.014-.058.607-.729.71-.84Z" class="cls-1"/><path d="M26.593,76.799c-.884-.803-1.751-1.691-2.528-2.581l.08-.151c6.356-3.415,12.8-6.688,19.494-9.405.135.115.685.614.877.794,3.086,2.907,7.032,5.014,11.223,5.796-.067.111-1.155,1.218-1.533,1.641-3.383,3.789-6.256,8.133-8.818,12.509-.04.08-.096.106-.181.123-.314.061-1.757-.246-2.17-.327-6.145-1.213-11.832-4.211-16.445-8.4Z" class="cls-1"/><path d="M71.791,31.828c-.085.086-1.271-.738-1.461-.844-3.996-2.234-8.59-3.014-13.133-2.598-4.344-4.12-7.877-9.002-11.042-14.066.051-.074.099-.098.187-.113.244-.042.769-.06,1.056-.079,8.1-.515,16.016,1.452,22.678,6.067.484.335,1.511.99,1.87,1.382.066.072.142.125.148.234-.431,3.32-.746,6.679-.303,10.017Z" class="cls-1"/><path d="M47.212,85.828c-.053-.048.471-.887.543-1.007,2.86-4.733,6.185-9.381,10.122-13.248,3.991.036,7.971-.321,11.586-2.103l2.782-1.566c-.392,3.346.007,6.711.531,10.016-.026.163-.164.24-.269.342-.513.498-1.406,1.125-2.006,1.548-6.803,4.797-14.992,6.663-23.289,6.017Z" class="cls-1"/><path d="M39.724,50.812l14.597-.076c.062,2.685.931,5.098,2.434,7.285.097.141.624.701.516.808-4.464.727-8.742,2.276-12.959,3.851-2.848-3.292-4.422-7.506-4.588-11.868Z" class="cls-2"/><path d="M39.724,49.375c-.025-4.302,1.453-8.544,4.136-11.879,4.319,1.434,8.648,3.035,13.183,3.636.021.109-.02.185-.059.28-.215.515-.95,1.366-1.265,1.987-.895,1.76-1.387,3.849-1.397,5.825l-14.597.151Z" class="cls-2"/><path d="M85.934,50.509c.193,9.852-4.176,19.508-11.457,26.017-.109.002-.32-1.958-.34-2.157-.19-1.822-.312-3.848-.151-5.671.046-.525.266-2.392.553-2.738.394-.475,1.143-1.03,1.603-1.535,3.45-3.781,5.553-8.739,5.482-13.917h4.311Z" class="cls-1"/><path d="M81.622,49.073c-.083-5.962-3.048-11.604-7.529-15.425-1.012-3.356-.644-7.081-.336-10.534.08.044.168.111.243.17.556.438,2.397,2.38,3.274,3.401,5.395,6.277,8.499,13.958,8.659,22.312l-4.312.076Z" class="cls-1"/><path d="M65.214,35.857s-.104.035-.183.064c-.485.177-.979.282-1.481.486-1.236.504-2.487,1.24-3.551,2.046-.353.268-1.326,1.242-1.598,1.352-.394.159-2.134-.255-2.659-.36-3.684-.741-7.302-1.924-10.799-3.267,2.606-2.766,5.895-4.895,9.617-5.81.415-.102,1.476-.381,1.841-.36.269.015,1.291,1.047,1.589,1.291,1.972,1.61,4.078,3.016,6.362,4.151.127.063.821.388.861.409Z" class="cls-2"/><path d="M65.362,63.972c.029.134-.039.15-.125.215-.34.256-1.136.541-1.562.783-2.386,1.356-4.565,3.048-6.527,4.959-3.625-.466-6.984-1.948-9.82-4.22-.256-.205-1.896-1.597-1.856-1.773,4.172-1.712,8.508-3.102,12.974-3.825l.183.042c1.914,1.749,4.184,3.233,6.733,3.82Z" class="cls-2"/><path d="M58.859,29.787c4.891-.154,9.709,1.357,13.458,4.504l.684,1.697c-.92-.167-1.821-.466-2.761-.528-.574-.038-1.241.068-1.796-.019-.635-.099-1.897-.672-2.527-.952-2.073-.92-5.35-2.881-6.93-4.49-.065-.066-.118-.158-.127-.213Z" class="cls-2"/><path d="M59.463,70.097c1.998-1.949,4.511-3.684,7.058-4.853.481-.221,1.525-.726,1.998-.8.536-.084,1.174.019,1.724-.015,1.011-.062,1.999-.325,2.984-.532-.178.395-.279,1.023-.471,1.381-.285.531-2.236,1.805-2.833,2.158-3.187,1.885-6.756,2.694-10.46,2.661Z" class="cls-2"/><path d="M56.136,50.661h6.164c.175,0,.101.707.114.869.2,2.424.883,4.828,2.117,6.92-.987-.141-1.991-.188-2.991-.154-.598.02-1.482.211-2.043.159-.408-.038-.827-.702-1.078-1.039-1.441-1.933-2.246-4.338-2.283-6.755Z" class="cls-3"/><path d="M56.06,49.224c.149-2.22.753-4.383,1.934-6.271.192-.306.82-1.244,1.054-1.441.083-.07.109-.082.222-.082.415,0,1,.145,1.438.16,1.152.039,2.303-.022,3.444-.154-1.197,2.422-1.79,5.079-1.815,7.789h-6.277Z" class="cls-3"/><path d="M65.795,60.287c.08.068.168.31.285.433.712.751,1.502,1.549,2.458,1.967.044.169-.069.178-.207.205-1.051.208-3.448-.572-4.458-1.025-.403-.181-3.046-1.69-3.048-1.942,0-.082.183-.109.259-.117.77-.084,4.173.019,4.71.479Z" class="cls-3"/><path d="M60.673,40.072c-.009-.162.264-.314.385-.409,2.047-1.612,4.56-2.605,7.178-2.766-.747.559-1.44,1.048-2.081,1.738-.173.187-.726.979-.845,1.046-.276.154-1.851.353-2.255.392-.77.073-1.624.131-2.382,0Z" class="cls-3"/><path d="M112.902,41.537c-.702,1.476-1.768,2.691-3.198,3.649-1.43.959-3.249,1.438-5.456,1.438-3.06,0-5.538-.99-7.435-2.972-1.896-1.981-2.844-4.573-2.844-7.773,0-3.451.968-6.24,2.904-8.367,1.937-2.127,4.425-3.19,7.465-3.19,1.957,0,3.654.451,5.094,1.354,1.439.902,2.506,2.167,3.198,3.792l-2.167.933c-.622-1.214-1.445-2.139-2.468-2.776-1.023-.637-2.242-.955-3.657-.955-2.248,0-4.096.833-5.546,2.498s-2.174,3.853-2.174,6.562c0,2.559.705,4.623,2.114,6.192,1.41,1.57,3.268,2.355,5.576,2.355,1.585,0,2.895-.346,3.928-1.038,1.033-.692,1.851-1.62,2.453-2.784l2.212,1.083Z" class="cls-3"/><path d="M126.835,46.624c-3.05,0-5.518-1.006-7.404-3.018-1.886-2.011-2.829-4.638-2.829-7.878,0-3.441.976-6.203,2.927-8.285,1.951-2.081,4.507-3.122,7.667-3.122,2.97,0,5.368.993,7.194,2.979,1.826,1.986,2.739,4.62,2.739,7.9,0,3.401-.948,6.155-2.844,8.263-1.896,2.106-4.379,3.16-7.45,3.16ZM126.835,44.291c2.288,0,4.134-.807,5.539-2.423,1.404-1.615,2.107-3.722,2.107-6.32,0-2.679-.688-4.828-2.062-6.449-1.375-1.62-3.175-2.43-5.403-2.43-2.317,0-4.191.805-5.621,2.415s-2.145,3.75-2.145,6.419c0,2.618.7,4.738,2.099,6.358s3.228,2.43,5.485,2.43Z" class="cls-3"/><path d="M164.154,46.262h-2.513v-14.478c0-.592.005-1.146.015-1.663.01-.517.025-1.115.045-1.798h-.06c-.081.261-.156.486-.226.677-.07.191-.161.417-.271.678l-7.375,16.584h-1.234l-7.359-16.464c-.08-.171-.17-.376-.271-.617-.1-.24-.206-.526-.316-.857h-.06c.02.361.035.83.045,1.407.01.577.015,1.271.015,2.084v14.447h-2.438v-21.581h3.341l6.622,15.05c.25.572.451,1.041.602,1.407.15.366.281.72.391,1.061h.09c.17-.421.349-.862.534-1.324.186-.461.354-.862.504-1.204l6.757-14.989h3.161v21.581Z" class="cls-3"/><path d="M173.133,38.346v7.916h-2.528v-21.581h5.93c2.308,0,4.096.575,5.365,1.724,1.269,1.148,1.903,2.762,1.903,4.838s-.705,3.78-2.114,5.109c-1.41,1.33-3.313,1.994-5.711,1.994h-2.844ZM173.133,26.969v9.09h2.649c1.746,0,3.078-.411,3.996-1.234.918-.822,1.377-1.977,1.377-3.461,0-1.465-.421-2.563-1.264-3.296s-2.107-1.099-3.792-1.099h-2.965Z" class="cls-3"/><path d="M184.412,46.262l8.277-21.581h2.619l8.307,21.581h-2.799l-2.182-5.764h-9.346l-2.062,5.764h-2.814ZM190.13,38.211h7.675l-3.491-9.392c-.07-.19-.126-.351-.166-.481-.04-.13-.095-.311-.166-.542h-.06c-.081.231-.141.414-.181.55s-.095.293-.166.474l-3.446,9.392Z" class="cls-3"/><path d="M225.01,46.262h-3.101l-11.106-17.201c-.161-.241-.276-.414-.346-.52s-.166-.253-.286-.443h-.09c.02.2.035.514.045.94.01.427.015.971.015,1.633v15.591h-2.528v-21.581h3.281l10.806,16.931c.19.302.336.54.437.715.1.176.215.379.346.61h.06c-.021-.302-.035-.708-.045-1.22-.01-.512-.015-1.123-.015-1.836v-15.2h2.528v21.581Z" class="cls-3"/><path d="M233.975,46.262h-2.528v-21.581h2.528v21.581Z" class="cls-3"/><path d="M249.245,46.624c-3.05,0-5.518-1.006-7.404-3.018-1.886-2.011-2.829-4.638-2.829-7.878,0-3.441.976-6.203,2.927-8.285,1.951-2.081,4.507-3.122,7.667-3.122,2.97,0,5.368.993,7.194,2.979,1.826,1.986,2.739,4.62,2.739,7.9,0,3.401-.948,6.155-2.844,8.263-1.896,2.106-4.379,3.16-7.45,3.16ZM249.245,44.291c2.288,0,4.134-.807,5.539-2.423,1.404-1.615,2.107-3.722,2.107-6.32,0-2.679-.688-4.828-2.062-6.449-1.375-1.62-3.175-2.43-5.403-2.43-2.317,0-4.191.805-5.621,2.415s-2.145,3.75-2.145,6.419c0,2.618.7,4.738,2.099,6.358s3.228,2.43,5.485,2.43Z" class="cls-3"/><path d="M281.958,46.262h-3.101l-11.106-17.201c-.161-.241-.276-.414-.346-.52s-.166-.253-.286-.443h-.09c.02.2.035.514.045.94.01.427.015.971.015,1.633v15.591h-2.528v-21.581h3.281l10.806,16.931c.19.302.336.54.437.715.1.176.215.379.346.61h.06c-.021-.302-.035-.708-.045-1.22-.01-.512-.015-1.123-.015-1.836v-15.2h2.528v21.581Z" class="cls-3"/><path d="M97.913,76.177h-2.528v-21.581h2.528v21.581Z" class="cls-3"/><path d="M119.45,76.177h-3.101l-11.106-17.202c-.161-.24-.276-.413-.346-.519s-.166-.254-.286-.444h-.09c.02.201.035.515.045.94.01.427.015.971.015,1.633v15.592h-2.528v-21.581h3.281l10.806,16.931c.19.301.336.539.437.715.1.176.215.379.346.609h.06c-.021-.301-.035-.707-.045-1.219-.01-.512-.015-1.124-.015-1.836v-15.2h2.528v21.581Z" class="cls-3"/><path d="M136.772,56.883h-6.23v19.294h-2.528v-19.294h-6.215v-2.287h14.974v2.287Z" class="cls-3"/><path d="M150.859,76.177h-11.438v-21.581h10.956v2.287h-8.428v7.179h7.796v2.272h-7.796v7.555h8.909v2.288Z" class="cls-3"/><path d="M165.908,76.177h-11.197v-21.581h2.528v19.293h8.668v2.288Z" class="cls-3"/><path d="M180.115,76.177h-11.197v-21.581h2.528v19.293h8.668v2.288Z" class="cls-3"/><path d="M185.653,76.177h-2.528v-21.581h2.528v21.581Z" class="cls-3"/><path d="M208.077,73.889c-1.054.803-2.278,1.445-3.672,1.927s-2.879.723-4.455.723c-3.12,0-5.624-.993-7.51-2.98-1.886-1.986-2.829-4.614-2.829-7.886,0-3.411.94-6.17,2.822-8.277,1.881-2.106,4.392-3.16,7.532-3.16,1.896,0,3.526.387,4.891,1.159,1.364.772,2.403,1.855,3.115,3.25l-2.228,1.023c-.552-1.003-1.319-1.768-2.302-2.295-.983-.526-2.143-.79-3.477-.79-2.317,0-4.181.82-5.591,2.461s-2.114,3.785-2.114,6.434c0,2.719.709,4.854,2.129,6.403,1.419,1.55,3.303,2.325,5.651,2.325,1.033,0,2.026-.136,2.98-.406.953-.271,1.796-.672,2.528-1.204v-5.268h-5.162v-2.287h7.69v8.849Z" class="cls-3"/><path d="M224.224,76.177h-11.438v-21.581h10.956v2.287h-8.428v7.179h7.796v2.272h-7.796v7.555h8.909v2.288Z" class="cls-3"/><path d="M245.474,76.177h-3.101l-11.106-17.202c-.161-.24-.276-.413-.346-.519s-.166-.254-.286-.444h-.09c.02.201.035.515.045.94.01.427.015.971.015,1.633v15.592h-2.528v-21.581h3.281l10.806,16.931c.19.301.336.539.437.715.1.176.215.379.346.609h.06c-.021-.301-.035-.707-.045-1.219-.01-.512-.015-1.124-.015-1.836v-15.2h2.528v21.581Z" class="cls-3"/><path d="M267.733,71.452c-.702,1.475-1.768,2.691-3.198,3.649s-3.249,1.438-5.456,1.438c-3.06,0-5.538-.991-7.435-2.973-1.896-1.981-2.844-4.572-2.844-7.773,0-3.451.968-6.24,2.904-8.367,1.937-2.127,4.425-3.19,7.465-3.19,1.957,0,3.654.451,5.094,1.354,1.439.903,2.506,2.167,3.198,3.793l-2.167.933c-.622-1.214-1.445-2.14-2.468-2.776-1.023-.638-2.242-.956-3.657-.956-2.248,0-4.096.833-5.546,2.498-1.45,1.666-2.174,3.853-2.174,6.562,0,2.559.705,4.623,2.114,6.193s3.268,2.355,5.576,2.355c1.585,0,2.895-.347,3.928-1.039,1.033-.692,1.851-1.62,2.453-2.784l2.212,1.084Z" class="cls-3"/><path d="M283.264,76.177h-11.438v-21.581h10.956v2.287h-8.428v7.179h7.796v2.272h-7.796v7.555h8.909v2.288Z" class="cls-3"/></svg>