<?xml version="1.0" encoding="UTF-8"?><svg id="Layer_1" xmlns="http://www.w3.org/2000/svg" viewBox="28 28 80 80"><defs><style>.cls-1{fill:#066c80;}.cls-2{fill:#00a9a7;}.cls-3{fill:#72ddd4;}</style></defs><path class="cls-1" d="M28.351,69.237l25.955-.131c.009.155.061.708.079.928.335,4.055,1.681,7.891,3.962,11.239.323.475,1.037,1.366,1.201,1.571,0,0,.067.115.066.115-.041.041-.379.202-.466.238-7.35,3.08-14.473,6.648-21.506,10.381-5.899-6.623-9.167-15.454-9.292-24.341Z"/><path class="cls-1" d="M59.19,53.501c-.066.077-.077.11-.147.197-.285.358-1.132,1.55-1.453,2.074-1.814,2.967-2.901,6.427-3.205,9.896-.052.596-.078,1.193-.086,1.804l-25.996.09c-.047-8.767,2.835-17.587,8.505-24.264.239-.061,3.864,1.914,4.418,2.187,4.148,2.044,8.349,4.049,12.597,5.878,1.728.744,3.593,1.524,5.365,2.137Z"/><path class="cls-1" d="M38.881,40.883c5.376-5.796,12.61-10.214,20.44-11.766.424-.084,1.906-.436,2.182-.169,3.051,5.12,6.631,9.929,10.687,14.296.109.118,1.33,1.244,1.259,1.301-4.933.793-8.926,3.445-12.472,6.799-.272.258-.674.735-.713.731-7.55-2.951-15.018-6.465-22.171-10.261-.015-.064.674-.809.788-.933Z"/><path class="cls-1" d="M41.819,97.926c-.982-.891-1.944-1.878-2.808-2.866l.089-.167c7.058-3.792,14.213-7.426,21.646-10.443.15.127.761.682.974.882,3.427,3.228,7.808,5.568,12.463,6.436-.074.123-1.283,1.352-1.702,1.822-3.756,4.208-6.947,9.03-9.792,13.891-.044.089-.107.118-.201.136-.349.067-1.951-.273-2.409-.363-6.823-1.347-13.138-4.676-18.26-9.328Z"/><path class="cls-1" d="M92.007,47.99c-.094.096-1.412-.82-1.623-.938-4.437-2.48-9.539-3.347-14.583-2.884-4.823-4.575-8.747-9.996-12.261-15.619.057-.082.11-.109.208-.126.271-.046.854-.067,1.172-.087,8.994-.572,17.784,1.612,25.182,6.737.538.373,1.677,1.099,2.077,1.534.073.079.157.138.164.26-.478,3.687-.828,7.416-.336,11.123Z"/><path class="cls-1" d="M64.714,107.951c-.059-.053.523-.985.603-1.118,3.175-5.255,6.868-10.417,11.239-14.71,4.432.04,8.851-.356,12.865-2.335l3.089-1.739c-.435,3.715.007,7.452.59,11.122-.028.181-.182.267-.298.38-.569.553-1.561,1.249-2.228,1.719-7.554,5.327-16.648,7.398-25.86,6.681Z"/><path class="cls-2" d="M56.4,69.069l16.209-.084c.069,2.981,1.034,5.661,2.702,8.089.108.157.692.779.573.897-4.957.808-9.707,2.527-14.39,4.277-3.162-3.656-4.91-8.334-5.094-13.178Z"/><path class="cls-2" d="M56.4,67.474c-.028-4.778,1.613-9.487,4.593-13.191,4.796,1.593,9.603,3.371,14.639,4.037.023.122-.022.206-.066.311-.239.572-1.055,1.517-1.405,2.206-.993,1.955-1.54,4.274-1.551,6.469l-16.209.168Z"/><path class="cls-1" d="M107.712,68.733c.214,10.94-4.637,21.662-12.722,28.89-.121.002-.355-2.174-.378-2.395-.211-2.023-.346-4.273-.168-6.297.051-.583.296-2.657.614-3.04.437-.527,1.269-1.144,1.78-1.705,3.83-4.198,6.166-9.704,6.087-15.453h4.787Z"/><path class="cls-1" d="M102.924,67.138c-.092-6.62-3.385-12.885-8.36-17.127-1.124-3.727-.715-7.863-.373-11.697.089.049.186.123.27.189.617.486,2.662,2.643,3.636,3.776,5.991,6.97,9.437,15.499,9.615,24.776l-4.788.084Z"/><path class="cls-2" d="M84.704,52.463c.005.003-.115.039-.204.071-.539.196-1.087.313-1.644.54-1.372.56-2.762,1.376-3.943,2.272-.392.297-1.472,1.379-1.774,1.501-.437.177-2.37-.283-2.952-.4-4.09-.823-8.108-2.136-11.991-3.627,2.894-3.071,6.545-5.435,10.678-6.452.461-.113,1.638-.423,2.044-.4.299.017,1.434,1.163,1.765,1.433,2.19,1.788,4.528,3.349,7.064,4.609.141.07.911.431.957.454Z"/><path class="cls-2" d="M84.869,83.682c.032.148-.043.166-.139.238-.378.284-1.261.601-1.734.869-2.649,1.505-5.069,3.385-7.248,5.506-4.026-.517-7.755-2.163-10.904-4.686-.285-.228-2.106-1.773-2.061-1.969,4.633-1.901,9.447-3.444,14.407-4.247l.203.047c2.125,1.942,4.646,3.59,7.476,4.241Z"/><path class="cls-2" d="M77.647,45.723c5.431-.171,10.781,1.507,14.943,5.001l.76,1.885c-1.021-.185-2.022-.517-3.066-.587-.637-.042-1.378.075-1.995-.021-.705-.11-2.106-.746-2.806-1.057-2.302-1.021-5.941-3.199-7.696-4.985-.072-.074-.131-.175-.141-.236Z"/><path class="cls-2" d="M78.319,90.483c2.219-2.165,5.009-4.09,7.837-5.389.535-.245,1.693-.807,2.218-.889.595-.093,1.303.021,1.915-.017,1.122-.069,2.22-.361,3.313-.591-.198.439-.31,1.136-.523,1.534-.316.59-2.483,2.004-3.146,2.397-3.538,2.094-7.502,2.991-11.615,2.955Z"/><path class="cls-3" d="M74.624,68.901h6.844c.195,0,.112.785.127.965.222,2.691.981,5.362,2.351,7.684-1.096-.156-2.211-.209-3.321-.171-.664.023-1.646.235-2.269.177-.453-.042-.918-.78-1.197-1.154-1.6-2.147-2.494-4.817-2.535-7.501Z"/><path class="cls-3" d="M74.54,67.305c.165-2.465.836-4.867,2.148-6.964.213-.34.911-1.381,1.17-1.601.093-.078.121-.091.246-.091.461,0,1.11.161,1.596.177,1.28.043,2.557-.024,3.825-.171-1.329,2.69-1.988,5.639-2.015,8.649h-6.97Z"/><path class="cls-3" d="M85.35,79.59c.089.076.186.344.316.481.791.833,1.668,1.719,2.73,2.184.048.188-.077.197-.229.228-1.167.231-3.829-.635-4.95-1.138-.448-.201-3.382-1.876-3.385-2.156,0-.091.203-.121.288-.13.856-.094,4.633.021,5.23.532Z"/><path class="cls-3" d="M79.662,57.143c-.01-.18.293-.349.427-.454,2.273-1.79,5.063-2.893,7.971-3.071-.83.62-1.599,1.164-2.311,1.93-.192.207-.806,1.087-.939,1.161-.306.171-2.055.392-2.504.435-.855.081-1.803.145-2.645,0Z"/></svg>
