<svg version="1.2" xmlns="http://www.w3.org/2000/svg" viewBox="0 0 272 75" width="363" height="100">
	<style>
		.s0 { fill: #066c80 } 
		.s1 { fill: #00a9a7 } 
		.s2 { fill: #72ddd4 } 
	</style>
	<path class="s0" d="m1.46 37.91l23.34-0.12c0.01 0.14 0.06 0.64 0.07 0.83 0.3 3.65 1.51 7.1 3.57 10.11 0.29 0.43 0.93 1.23 1.08 1.41 0 0 0.06 0.11 0.06 0.11-0.04 0.03-0.35 0.18-0.42 0.21-6.61 2.77-13.02 5.98-19.34 9.34-5.31-5.96-8.25-13.9-8.36-21.89z"/>
	<path class="s0" d="m29.19 23.76c-0.06 0.07-0.07 0.1-0.13 0.17-0.25 0.33-1.02 1.4-1.31 1.87-1.63 2.67-2.6 5.78-2.88 8.9q-0.07 0.8-0.07 1.62l-23.38 0.08c-0.04-7.88 2.55-15.81 7.65-21.82 0.21-0.05 3.47 1.72 3.97 1.97 3.73 1.84 7.51 3.64 11.33 5.29 1.55 0.66 3.23 1.37 4.82 1.92z"/>
	<path class="s0" d="m10.93 12.41c4.83-5.21 11.34-9.18 18.38-10.58 0.38-0.08 1.72-0.39 1.96-0.15 2.75 4.6 5.97 8.93 9.61 12.85 0.1 0.11 1.2 1.12 1.13 1.17-4.43 0.72-8.02 3.1-11.21 6.12-0.25 0.23-0.61 0.66-0.64 0.66-6.79-2.66-13.51-5.82-19.94-9.23-0.01-0.06 0.61-0.73 0.71-0.84z"/>
	<path class="s0" d="m13.57 63.7c-0.88-0.8-1.75-1.68-2.52-2.57l0.08-0.15c6.35-3.41 12.78-6.68 19.46-9.39 0.14 0.11 0.69 0.61 0.88 0.79 3.08 2.9 7.02 5.01 11.21 5.79-0.07 0.11-1.16 1.21-1.53 1.63-3.38 3.79-6.25 8.13-8.81 12.5q-0.06 0.1-0.18 0.12c-0.31 0.06-1.75-0.25-2.17-0.33-6.13-1.21-11.81-4.2-16.42-8.39z"/>
	<path class="s0" d="m58.7 18.8c-0.08 0.09-1.26-0.74-1.45-0.84-3.99-2.23-8.58-3.01-13.12-2.6-4.34-4.11-7.86-8.99-11.02-14.04q0.06-0.1 0.18-0.11c0.25-0.05 0.77-0.06 1.06-0.08 8.09-0.52 15.99 1.45 22.64 6.05 0.49 0.34 1.51 0.99 1.87 1.38 0.06 0.08 0.14 0.13 0.15 0.24-0.43 3.31-0.75 6.67-0.31 10z"/>
	<path class="s0" d="m34.16 72.72c-0.05-0.05 0.47-0.89 0.54-1.01 2.86-4.72 6.18-9.36 10.11-13.22 3.99 0.03 7.96-0.32 11.57-2.1l2.78-1.57c-0.39 3.34 0 6.7 0.53 10-0.03 0.17-0.17 0.24-0.27 0.35-0.51 0.49-1.4 1.12-2 1.54-6.8 4.79-14.97 6.65-23.26 6.01z"/>
	<path class="s1" d="m26.68 37.76l14.58-0.08c0.06 2.68 0.93 5.09 2.43 7.27 0.1 0.15 0.62 0.7 0.52 0.81-4.46 0.73-8.73 2.27-12.94 3.85-2.85-3.29-4.42-7.5-4.59-11.85z"/>
	<path class="s1" d="m26.68 36.32c-0.02-4.29 1.46-8.53 4.13-11.86 4.32 1.43 8.64 3.03 13.17 3.63 0.02 0.11-0.02 0.19-0.06 0.28-0.22 0.51-0.95 1.36-1.26 1.98-0.9 1.76-1.39 3.85-1.4 5.82 0 0-14.57 0.15-14.58 0.15z"/>
	<path class="s0" d="m72.83 37.45c0.19 9.84-4.17 19.48-11.44 25.98-0.11 0-0.32-1.95-0.34-2.15-0.19-1.82-0.31-3.84-0.15-5.66 0.04-0.53 0.26-2.39 0.55-2.74 0.39-0.47 1.14-1.03 1.6-1.53 3.44-3.78 5.54-8.73 5.47-13.9 0 0 4.31 0 4.31 0z"/>
	<path class="s0" d="m68.52 36.02c-0.08-5.95-3.04-11.59-7.52-15.4-1.01-3.35-0.64-7.07-0.33-10.52q0.12 0.07 0.24 0.17c0.56 0.44 2.39 2.38 3.27 3.39 5.39 6.27 8.49 13.94 8.65 22.28 0 0-4.31 0.08-4.31 0.08z"/>
	<path class="s1" d="m52.14 22.82c0 0-0.11 0.04-0.19 0.07-0.48 0.17-0.97 0.28-1.47 0.48-1.24 0.51-2.49 1.24-3.55 2.05-0.35 0.26-1.32 1.24-1.6 1.35-0.39 0.15-2.13-0.26-2.65-0.36-3.68-0.74-7.29-1.93-10.78-3.27 2.6-2.76 5.88-4.88 9.6-5.8 0.41-0.1 1.47-0.38 1.84-0.36 0.27 0.02 1.29 1.05 1.58 1.29 1.97 1.61 4.08 3.01 6.36 4.15 0.12 0.06 0.82 0.38 0.86 0.4z"/>
	<path class="s1" d="m52.28 50.9c0.03 0.13-0.03 0.15-0.12 0.21-0.34 0.26-1.13 0.54-1.56 0.78-2.38 1.36-4.56 3.05-6.52 4.95-3.62-0.46-6.97-1.94-9.8-4.21-0.26-0.2-1.9-1.59-1.86-1.77 4.17-1.71 8.5-3.1 12.96-3.82l0.18 0.04c1.91 1.75 4.18 3.23 6.72 3.82z"/>
	<path class="s1" d="m45.79 16.76c4.89-0.15 9.7 1.36 13.44 4.5l0.68 1.69c-0.92-0.16-1.82-0.46-2.75-0.52-0.58-0.04-1.24 0.06-1.8-0.02-0.63-0.1-1.89-0.67-2.52-0.95-2.07-0.92-5.34-2.88-6.92-4.49-0.07-0.06-0.12-0.15-0.13-0.21z"/>
	<path class="s1" d="m46.39 57.01c2-1.94 4.51-3.68 7.05-4.84 0.48-0.22 1.52-0.73 2-0.8 0.53-0.09 1.17 0.02 1.72-0.02 1.01-0.06 1.99-0.32 2.98-0.53-0.18 0.4-0.28 1.02-0.47 1.38-0.29 0.53-2.23 1.8-2.83 2.16-3.18 1.88-6.75 2.69-10.45 2.65z"/>
	<path class="s2" d="m43.07 37.61h6.16c0.17 0 0.1 0.7 0.11 0.86 0.2 2.42 0.88 4.82 2.11 6.91q-1.48-0.21-2.98-0.15c-0.6 0.02-1.48 0.21-2.04 0.16-0.41-0.04-0.83-0.7-1.08-1.04-1.44-1.93-2.24-4.33-2.28-6.74z"/>
	<path class="s2" d="m43 36.17c0.15-2.22 0.75-4.38 1.93-6.26 0.19-0.31 0.82-1.24 1.05-1.44 0.08-0.07 0.11-0.08 0.22-0.08 0.42 0 1 0.14 1.44 0.16q1.73 0.05 3.44-0.16c-1.2 2.42-1.79 5.08-1.82 7.78 0 0-6.26 0-6.26 0z"/>
	<path class="s2" d="m52.72 47.22c0.08 0.07 0.16 0.31 0.28 0.43 0.71 0.75 1.5 1.55 2.46 1.96 0.04 0.17-0.07 0.18-0.21 0.21-1.05 0.21-3.44-0.57-4.45-1.03-0.4-0.18-3.04-1.68-3.05-1.93 0-0.09 0.19-0.11 0.26-0.12 0.77-0.08 4.17 0.02 4.71 0.48z"/>
	<path class="s2" d="m47.6 27.03c-0.01-0.16 0.27-0.31 0.39-0.41 2.04-1.61 4.55-2.6 7.16-2.76-0.74 0.56-1.43 1.05-2.07 1.74-0.18 0.18-0.73 0.97-0.85 1.04-0.27 0.16-1.85 0.35-2.25 0.39-0.77 0.08-1.62 0.13-2.38 0z"/>
	<path class="s0" d="m99.75 28.49q-1.05 2.21-3.19 3.65-2.14 1.43-5.45 1.43-4.58 0-7.42-2.96-2.84-2.97-2.84-7.76 0-5.17 2.9-8.36 2.9-3.18 7.45-3.18 2.93 0 5.09 1.35 2.16 1.35 3.19 3.78l-2.16 0.94q-0.93-1.82-2.47-2.78-1.53-0.95-3.65-0.95-3.36 0-5.53 2.49-2.18 2.5-2.18 6.56 0 3.83 2.12 6.18 2.11 2.35 5.56 2.35 2.38 0 3.93-1.04 1.54-1.03 2.44-2.78c0 0 2.21 1.09 2.21 1.08z"/>
	<path class="s0" d="m113.67 33.57q-4.57 0-7.4-3.01-2.82-3.01-2.82-7.87 0-5.15 2.92-8.27 2.92-3.12 7.66-3.12 4.45 0 7.18 2.98 2.74 2.97 2.74 7.89 0 5.09-2.84 8.25-2.84 3.15-7.44 3.15zm0-2.33q3.42 0.01 5.53-2.41 2.1-2.42 2.1-6.32 0-4.01-2.06-6.43-2.06-2.43-5.39-2.43-3.47 0-5.61 2.41-2.15 2.41-2.15 6.41 0 3.92 2.1 6.35 2.09 2.42 5.48 2.42z"/>
	<path class="s0" d="m150.93 33.21h-2.51v-14.45q0-0.89 0.02-1.66 0.01-0.78 0.04-1.8h-0.06q-0.12 0.39-0.22 0.68-0.11 0.28-0.27 0.67l-7.37 16.56h-1.23l-7.35-16.44q-0.12-0.25-0.27-0.61-0.15-0.36-0.32-0.86h-0.06q0.03 0.54 0.05 1.41 0.01 0.86 0.01 2.08v14.42h-2.43v-21.55h3.34l6.61 15.03q0.37 0.86 0.6 1.41 0.22 0.54 0.39 1.06h0.09q0.26-0.63 0.53-1.33 0.28-0.69 0.51-1.2l6.74-14.97h3.16c0 0 0 21.55 0 21.55z"/>
	<path class="s0" d="m159.9 25.31v7.9h-2.53v-21.55h5.92q3.46 0 5.36 1.73 1.9 1.72 1.9 4.83 0 3.11-2.11 5.1-2.11 1.99-5.7 1.99c0 0-2.84 0-2.84 0zm0-11.36v9.07h2.64q2.62 0.01 3.99-1.23 1.38-1.23 1.38-3.45 0-2.2-1.27-3.29-1.26-1.1-3.78-1.1c0 0-2.96 0-2.96 0z"/>
	<path class="s0" d="m171.16 33.21l8.26-21.55h2.62l8.29 21.55h-2.79l-2.18-5.75h-9.33l-2.06 5.75zm5.71-8.04h7.66l-3.48-9.37q-0.11-0.29-0.17-0.48-0.06-0.2-0.17-0.55h-0.06q-0.12 0.35-0.18 0.55-0.06 0.21-0.16 0.48c0 0-3.44 9.37-3.44 9.37z"/>
	<path class="s0" d="m211.7 33.21h-3.1l-11.09-17.17q-0.24-0.36-0.34-0.52-0.11-0.16-0.29-0.44h-0.09q0.03 0.3 0.05 0.93 0.01 0.64 0.01 1.63v15.57h-2.52v-21.55h3.27l10.79 16.91q0.29 0.45 0.44 0.71 0.15 0.27 0.34 0.61h0.06q-0.03-0.45-0.04-1.22-0.02-0.76-0.02-1.83v-15.18h2.53c0 0 0 21.55 0 21.55z"/>
	<path class="s0" d="m220.65 33.21h-2.53v-21.55h2.53z"/>
	<path class="s0" d="m235.9 33.57q-4.57 0-7.4-3.01-2.82-3.01-2.82-7.87 0-5.15 2.92-8.27 2.92-3.12 7.66-3.12 4.45 0 7.18 2.98 2.74 2.97 2.74 7.89 0 5.09-2.84 8.25-2.84 3.15-7.44 3.15zm0-2.33q3.42 0.01 5.53-2.41 2.1-2.42 2.1-6.32 0-4.01-2.06-6.43-2.06-2.43-5.39-2.43-3.47 0-5.62 2.41-2.14 2.41-2.14 6.41 0 3.92 2.1 6.35 2.09 2.42 5.48 2.42z"/>
	<path class="s0" d="m268.56 33.21h-3.1l-11.09-17.17q-0.24-0.36-0.34-0.52-0.11-0.16-0.29-0.44h-0.09q0.03 0.3 0.05 0.93 0.01 0.64 0.01 1.63v15.57h-2.52v-21.55h3.28l10.79 16.91q0.28 0.45 0.43 0.71 0.15 0.27 0.35 0.61h0.06q-0.03-0.45-0.05-1.22-0.01-0.76-0.01-1.83v-15.18h2.52c0 0 0 21.55 0 21.55z"/>
	<path class="s0" d="m84.79 63.08h-2.53v-21.55h2.53z"/>
	<path class="s0" d="m106.29 63.08h-3.09l-11.09-17.17q-0.24-0.36-0.35-0.52-0.1-0.16-0.28-0.44h-0.09q0.03 0.3 0.04 0.93 0.02 0.64 0.02 1.63v15.57h-2.53v-21.55h3.28l10.79 16.91q0.28 0.45 0.43 0.71 0.15 0.27 0.35 0.61h0.06q-0.03-0.45-0.05-1.21-0.01-0.77-0.01-1.84v-15.18h2.52c0 0 0 21.55 0 21.55z"/>
	<path class="s0" d="m123.59 43.82h-6.22v19.26h-2.53v-19.26h-6.2v-2.29h14.95c0 0 0 2.29 0 2.29z"/>
	<path class="s0" d="m137.66 63.08h-11.43v-21.55h10.94v2.29h-8.41v7.17h7.78v2.27h-7.78v7.54h8.89c0 0 0 2.28 0.01 2.28z"/>
	<path class="s0" d="m152.68 63.08h-11.18v-21.55h2.53v19.27h8.65c0 0 0 2.28 0 2.28z"/>
	<path class="s0" d="m166.87 63.08h-11.18v-21.55h2.52v19.27h8.66c0 0 0 2.28 0 2.28z"/>
	<path class="s0" d="m172.4 63.08h-2.53v-21.55h2.53z"/>
	<path class="s0" d="m194.79 60.8q-1.58 1.2-3.67 1.92-2.09 0.73-4.45 0.73-4.67 0-7.49-2.98-2.83-2.97-2.83-7.87 0-5.11 2.82-8.27 2.82-3.15 7.52-3.15 2.84 0 4.88 1.15 2.05 1.16 3.11 3.25l-2.22 1.02q-0.83-1.5-2.3-2.29-1.47-0.79-3.47-0.79-3.47 0-5.58 2.46-2.12 2.45-2.12 6.42 0 4.07 2.13 6.39 2.13 2.33 5.64 2.33 1.55 0 2.98-0.41 1.43-0.41 2.52-1.2v-5.26h-5.15v-2.29h7.68c0 0 0 8.84 0 8.84z"/>
	<path class="s0" d="m210.91 63.08h-11.42v-21.55h10.94v2.29h-8.41v7.17h7.78v2.27h-7.78v7.54h8.89c0 0 0 2.28 0 2.28z"/>
	<path class="s0" d="m232.13 63.08h-3.1l-11.09-17.17q-0.24-0.36-0.34-0.52-0.11-0.16-0.29-0.44h-0.09q0.03 0.3 0.05 0.93 0.01 0.64 0.01 1.63v15.57h-2.52v-21.55h3.28l10.79 16.91q0.28 0.45 0.43 0.71 0.15 0.27 0.35 0.61h0.06q-0.03-0.45-0.05-1.21-0.01-0.77-0.01-1.84v-15.18h2.52c0 0 0 21.55 0 21.55z"/>
	<path class="s0" d="m254.36 58.37q-1.05 2.2-3.2 3.64-2.14 1.43-5.44 1.44-4.59 0-7.43-2.97-2.84-2.97-2.84-7.76 0-5.17 2.9-8.36 2.9-3.19 7.46-3.18 2.93-0.01 5.08 1.35 2.16 1.35 3.2 3.78l-2.17 0.94q-0.93-1.82-2.46-2.78-1.53-0.95-3.65-0.95-3.37 0-5.54 2.49-2.17 2.5-2.17 6.56 0 3.83 2.11 6.18 2.11 2.35 5.57 2.35 2.37 0 3.92-1.04 1.55-1.03 2.45-2.78c0 0 2.21 1.09 2.21 1.09z"/>
	<path class="s0" d="m269.87 63.08h-11.43v-21.55h10.94v2.29h-8.41v7.17h7.78v2.27h-7.78v7.54h8.89c0 0 0 2.28 0.01 2.28z"/>
</svg>